<?xml version="1.0" standalone="no"?>
<!DOCTYPE svg PUBLIC "-//W3C//DTD SVG 1.1//EN" "http://www.w3.org/Graphics/SVG/1.1/DTD/svg11.dtd" >
<svg xmlns="http://www.w3.org/2000/svg">
<metadata>
This is a custom SVG webfont generated by Font Squirrel.
Copyright   :  2000 Ray Larabie This font is freeware Read attached text file for details Info  updates visit wwwlarabiefontscom Donations gratefully accepted at wwwlarabiefontscomdonationhtml Also visit my commercial type foundry at wwwtypodermiccom This font was updated in 2004
Designer    : Ray Larabie
Foundry URL : httpwwwlarabiefontscom
</metadata>
<defs>
<font id="ZektonRegular" horiz-adv-x="1310" >
<font-face units-per-em="2048" ascent="1638" descent="-410" />
<missing-glyph horiz-adv-x="512" />
<glyph unicode=" "  horiz-adv-x="512" />
<glyph unicode="&#x09;" horiz-adv-x="512" />
<glyph unicode="&#xa0;" horiz-adv-x="512" />
<glyph unicode="!" horiz-adv-x="450" d="M102 -41v250h246v-250h-246zM133 369v1310h184v-1310h-184z" />
<glyph unicode="&#x22;" horiz-adv-x="710" d="M70 1427v252h266v-252l-72 -239h-125zM377 1432v247h266v-247l-65 -244h-142z" />
<glyph unicode="#" horiz-adv-x="1208" d="M102 778v185h205v225h-205v184h205v307h185v-307h225v307h184v-307h205v-184h-205v-225h205v-185h-205v-307h-184v307h-225v-307h-185v307h-205zM492 963h225v225h-225v-225z" />
<glyph unicode="$" horiz-adv-x="1208" d="M102 1126.5q0 348.5 349 348.5h61v204h184v-204h308v-185h-553q-164 0 -164 -163.5t164 -163.5h307q348 0 348 -348.5t-348 -348.5h-62v-205h-184v205h-307v185h553q164 0 164 163.5t-164 163.5h-307q-349 0 -349 348.5z" />
<glyph unicode="%" horiz-adv-x="1720" d="M102 1331q0 348 348.5 348t348.5 -348t-348.5 -348t-348.5 348zM276 -41l957 1720h211l-959 -1720h-209zM287 1331q0 -164 163.5 -164t163.5 160q0 168 -163.5 168t-163.5 -164zM922 307q0 348 348 348t348 -348t-348 -348t-348 348zM1106 307q0 -164 164 -164t164 160 q0 168 -164 168t-164 -164z" />
<glyph unicode="&#x26;" horiz-adv-x="1413" d="M102 307v307q0 168 88 256q-88 92 -88 256v205q0 348 349 348h245v-184h-245q-164 0 -164 -164v-205q0 -78 39 -120.5t116 -42.5h869v-185h-307v-635h307v-184h-860q-349 0 -349 348zM287 307q0 -164 164 -164h368v635h-381q-152 -10 -151 -164v-307z" />
<glyph unicode="'" horiz-adv-x="387" d="M59 1427v252h267v-252l-72 -239h-125z" />
<glyph unicode="(" horiz-adv-x="552" d="M102 823q0 260 44 523.5t130 537.5h189q-178 -559 -178 -1063q0 -256 43 -518t137 -549h-188q-92 281 -134.5 544t-42.5 525z" />
<glyph unicode=")" horiz-adv-x="552" d="M86 -246q94 287 137 549t43 518q0 504 -178 1063h188q86 -274 130.5 -537.5t44.5 -523.5q0 -262 -42 -525t-135 -544h-188z" />
<glyph unicode="*" horiz-adv-x="1105" d="M106 954l54 158l311 -119v340h170v-340l297 117l57 -158l-305 -118l180 -246l-131 -105l-184 248l-190 -254l-136 101l195 253z" />
<glyph unicode="+" horiz-adv-x="798" d="M102 471v184h205v205h185v-205h204v-184h-204v-205h-185v205h-205z" />
<glyph unicode="," horiz-adv-x="450" d="M102 -41v250h246v-211l-61 -225h-142l37 186h-80z" />
<glyph unicode="-" horiz-adv-x="798" d="M102 471v184h594v-184h-594z" />
<glyph unicode="." horiz-adv-x="450" d="M102 -41v250h246v-250h-246z" />
<glyph unicode="/" horiz-adv-x="882" d="M88 -41l512 1720h195l-514 -1720h-193z" />
<glyph unicode="0" horiz-adv-x="1413" d="M102 307v1024q0 348 349 348h512q348 0 348 -348v-1028q0 -344 -348 -344h-512q-349 0 -349 348zM287 307q0 -164 164 -164h512q164 0 163 160v1028q0 164 -163 164h-512q-164 0 -164 -164v-1024z" />
<glyph unicode="1" horiz-adv-x="593" d="M102 1495v184q389 0 390 -348v-1372h-185v1372q0 164 -205 164z" />
<glyph unicode="2" horiz-adv-x="1208" d="M102 -41v655q0 348 349 349h307q164 0 164 163v205q0 164 -164 164h-553v184h553q348 0 348 -348v-205q0 -348 -348 -348h-307q-164 0 -164 -164v-471h819v-184h-1004z" />
<glyph unicode="3" horiz-adv-x="1208" d="M102 -41v184h656q164 0 164 164v307q0 78 -39 121t-117 43h-664v185h668q152 10 152 163v205q0 164 -164 164h-656v184h656q348 0 348 -348v-205q0 -164 -88 -256q88 -92 88 -256v-307q0 -348 -348 -348h-656z" />
<glyph unicode="4" horiz-adv-x="1413" d="M102 266v154l508 1259h199l-496 -1228h711v1228h184v-1228h103v-185h-103v-307h-184v307h-922z" />
<glyph unicode="5" horiz-adv-x="1208" d="M102 -41v184h656q164 0 164 160v311q0 164 -164 164h-656v901h902v-184h-717v-532h471q348 0 348 -349v-311q0 -344 -348 -344h-656z" />
<glyph unicode="6" d="M102 307v1024q0 348 349 348h655v-184h-655q-164 0 -164 -164v-1024q0 -164 164 -164h409q164 0 164 160v311q0 164 -164 164h-450v185h450q348 0 348 -349v-311q0 -344 -348 -344h-409q-349 0 -349 348z" />
<glyph unicode="7" horiz-adv-x="1296" d="M102 1495v184h1092v-153l-633 -1567h-201l623 1536h-881z" />
<glyph unicode="8" horiz-adv-x="1413" d="M102 307v307q0 166 97 256q-96 88 -97 256v205q0 348 349 348h512q348 0 348 -348v-209q0 -168 -97 -254q96 -90 97 -254v-311q0 -344 -348 -344h-512q-349 0 -349 348zM287 307q0 -164 164 -164h512q164 0 163 160v311q0 164 -163 164h-512q-164 0 -164 -164v-307z M287 1126q0 -164 164 -163h512q164 0 163 159v209q0 164 -163 164h-512q-164 0 -164 -164v-205z" />
<glyph unicode="9" d="M102 1126v209q0 344 349 344h409q348 0 348 -348v-1024q0 -348 -348 -348h-655v184h655q164 0 164 164v1024q0 164 -164 164h-409q-164 0 -164 -160v-209q0 -164 164 -163h450v-185h-450q-349 0 -349 348z" />
<glyph unicode=":" horiz-adv-x="450" d="M102 -41v250h246v-250h-246zM102 471v250h246v-250h-246z" />
<glyph unicode=";" horiz-adv-x="450" d="M102 -41v250h246v-211l-61 -225h-142l37 186h-80zM102 471v250h246v-250h-246z" />
<glyph unicode="&#x37e;" horiz-adv-x="450" d="M102 -41v250h246v-211l-61 -225h-142l37 186h-80zM102 471v250h246v-250h-246z" />
<glyph unicode="&#x3c;" horiz-adv-x="798" d="M102 481v168l594 445v-232l-399 -297l399 -301v-231z" />
<glyph unicode="=" horiz-adv-x="798" d="M102 266v185h594v-185h-594zM102 676v184h594v-184h-594z" />
<glyph unicode="&#x3e;" horiz-adv-x="798" d="M102 33v231l398 297l-398 301v232l594 -449v-168z" />
<glyph unicode="?" horiz-adv-x="1208" d="M102 1495v184h656q348 0 348 -348v-205q0 -348 -348 -348h-103q-164 0 -163 -164v-348h-185v348q0 348 348 349h103q164 0 164 163v205q0 164 -164 164h-656zM272 -41v250h246v-250h-246z" />
<glyph unicode="@" horiz-adv-x="1720" d="M102 307v1024q0 348 349 348h819q348 0 348 -344v-1069h-184v1069q0 160 -164 160h-819q-164 0 -164 -164v-1024q0 -164 164 -164h860v-184h-860q-349 0 -349 348zM410 614v4q0 344 348 345h246v-185h-246q-164 0 -164 -160v-4q0 -164 164 -163h205q164 0 163 163v410 q0 164 -163 164h-451v184h451q348 0 348 -348v-410q0 -348 -348 -348h-205q-348 0 -348 348z" />
<glyph unicode="A" horiz-adv-x="1579" d="M20 -41l685 1720h165l689 -1720h-201l-164 410h-698l73 184h551l-334 858l-567 -1452h-199z" />
<glyph unicode="B" d="M102 -41v1720h758q348 0 348 -348v-205q0 -168 -98 -256q98 -90 98 -256v-307q0 -348 -348 -348h-758zM287 143h573q164 0 164 164v307q0 158 -154 164h-460v185h462q152 10 152 163v205q0 164 -164 164h-573v-1352z" />
<glyph unicode="C" horiz-adv-x="1308" d="M102 307v1024q0 348 349 348h757v-184h-757q-164 0 -164 -164v-1024q0 -164 164 -164h757v-184h-757q-349 0 -349 348z" />
<glyph unicode="D" horiz-adv-x="1515" d="M102 -41v1720h963q348 0 348 -348v-1028q0 -344 -348 -344h-655v184h655q164 0 164 160v1028q0 164 -164 164h-778v-1536h-185z" />
<glyph unicode="E" horiz-adv-x="1208" d="M102 -41v1720h1004v-184h-819v-532h819v-185h-819v-635h819v-184h-1004z" />
<glyph unicode="F" horiz-adv-x="1208" d="M102 -41v1720h1004v-184h-819v-532h819v-185h-819v-819h-185z" />
<glyph unicode="G" horiz-adv-x="1515" d="M102 307v1024q0 348 349 348h860v-184h-860q-164 0 -164 -164v-1024q0 -164 164 -164h614q164 0 164 160v475h-512v185h696v-660q0 -344 -348 -344h-614q-349 0 -349 348z" />
<glyph unicode="H" horiz-adv-x="1413" d="M102 -41v1720h185v-716h839v716h185v-1720h-185v819h-839v-819h-185z" />
<glyph unicode="I" horiz-adv-x="389" d="M102 -41v1720h185v-1720h-185z" />
<glyph unicode="J" horiz-adv-x="860" d="M61 -41v184h349q164 0 163 160v1376h185v-1376q0 -344 -348 -344h-349z" />
<glyph unicode="K" horiz-adv-x="1488" d="M102 -41v1720h185v-714l919 714h299l-1132 -862l1124 -858h-299l-911 709v-709h-185z" />
<glyph unicode="L" horiz-adv-x="1136" d="M92 -41v1720h184v-1536h820v-184h-1004z" />
<glyph unicode="M" horiz-adv-x="1703" d="M102 -41v1720h181l571 -1452l567 1452h181v-1720h-185v1231l-481 -1231h-166l-483 1229v-1229h-185z" />
<glyph unicode="N" horiz-adv-x="1515" d="M102 -41v1720h164l963 -1396v1396h184v-1720h-164l-962 1384v-1384h-185z" />
<glyph unicode="O" horiz-adv-x="1515" d="M102 307v1024q0 348 349 348h614q348 0 348 -348v-1028q0 -344 -348 -344h-614q-349 0 -349 348zM287 307q0 -164 164 -164h614q164 0 164 160v1028q0 164 -164 164h-614q-164 0 -164 -164v-1024z" />
<glyph unicode="P" d="M102 -41v1720h758q348 0 348 -348v-205q0 -348 -348 -348h-450v185h450q164 0 164 163v205q0 164 -164 164h-573v-1536h-185z" />
<glyph unicode="Q" horiz-adv-x="1515" d="M102 307v1024q0 348 349 348h614q348 0 348 -348v-1028q0 -344 -348 -344h-213q18 -123 162 -123h143v-184h-143q-326 0 -348 307h-215q-349 0 -349 348zM287 307q0 -164 164 -164h614q164 0 164 160v1028q0 164 -164 164h-614q-164 0 -164 -164v-1024z" />
<glyph unicode="R" horiz-adv-x="1314" d="M102 -41v1720h758q348 0 348 -348v-205q0 -348 -348 -348h-203l594 -819h-223l-618 846v158h450q164 0 164 163v205q0 164 -164 164h-573v-1536h-185z" />
<glyph unicode="S" horiz-adv-x="1515" d="M102 1126v205q0 348 349 348h860v-184h-860q-164 0 -164 -164v-205q0 -164 164 -163h614q348 0 348 -349v-311q0 -344 -348 -344h-860v184h860q164 0 164 160v311q0 164 -164 164h-614q-349 0 -349 348z" />
<glyph unicode="T" horiz-adv-x="1275" d="M41 1495v184h1194v-184h-498v-1536h-184v1536h-512z" />
<glyph unicode="U" horiz-adv-x="1515" d="M102 307v1372h185v-1372q0 -164 164 -164h614q164 0 164 160v1376h184v-1376q0 -344 -348 -344h-614q-349 0 -349 348z" />
<glyph unicode="V" horiz-adv-x="1579" d="M20 1679h201l572 -1452l567 1452h199l-685 -1720h-165z" />
<glyph unicode="W" horiz-adv-x="2088" d="M29 1679h190l369 -1355l373 1355h167l369 -1355l373 1355h190l-479 -1720h-166l-371 1356l-372 -1356h-166z" />
<glyph unicode="X" horiz-adv-x="1548" d="M0 -41l659 858l-659 862h231l543 -729l541 729h231l-655 -860l657 -860h-231l-543 727l-541 -727h-233z" />
<glyph unicode="Y" horiz-adv-x="1546" d="M0 1679h231l543 -729l541 729h231l-680 -895v-825h-184v825z" />
<glyph unicode="Z" horiz-adv-x="1515" d="M102 -41v158l1049 1378h-1049v184h1311v-157l-1051 -1379h1051v-184h-1311z" />
<glyph unicode="[" horiz-adv-x="491" d="M102 -246v2130h287v-184h-102v-1766h102v-180h-287z" />
<glyph unicode="\" horiz-adv-x="882" d="M88 1679h195l512 -1720h-193z" />
<glyph unicode="]" horiz-adv-x="491" d="M102 -61h103v1761h-64v184h248v-2130h-287v185z" />
<glyph unicode="^" horiz-adv-x="966" d="M82 573l317 799h166l320 -799h-201l-203 510l-202 -510h-197z" />
<glyph unicode="_" horiz-adv-x="1105" d="M102 -164h902v-184h-902v184z" />
<glyph unicode="`" horiz-adv-x="696" d="M102 2001v205l492 -246v-205z" />
<glyph unicode="a" horiz-adv-x="1290" d="M82 307v4q0 344 348 344h451v-184h-451q-164 0 -164 -160v-4q0 -164 164 -164h410q164 0 164 164v512q0 164 -164 164h-656v184h656q348 0 348 -348v-512q0 -348 -348 -348h-410q-348 0 -348 348z" />
<glyph unicode="b" d="M102 307v1372h185v-1372q0 -164 164 -164h409q164 0 164 164v512q0 164 -164 164h-450v184h450q348 0 348 -348v-512q0 -348 -348 -348h-409q-349 0 -349 348z" />
<glyph unicode="c" horiz-adv-x="1064" d="M102 307v512q0 348 349 348h553v-184h-553q-164 0 -164 -164v-512q0 -164 164 -164h553v-184h-553q-349 0 -349 348z" />
<glyph unicode="d" d="M102 307v512q0 348 349 348h450v-184h-450q-164 0 -164 -164v-512q0 -164 164 -164h409q164 0 164 164v1372h184v-1372q0 -348 -348 -348h-409q-349 0 -349 348z" />
<glyph unicode="e" horiz-adv-x="1290" d="M102 307v512q0 348 349 348h409q348 0 348 -348v-4q0 -344 -348 -344h-450v184h450q164 0 164 160v4q0 164 -164 164h-409q-164 0 -164 -164v-512q0 -164 164 -164h655v-184h-655q-349 0 -349 348z" />
<glyph unicode="f" horiz-adv-x="532" d="M102 -41v1372q0 348 390 348v-184q-205 0 -205 -164v-164h205v-184h-205v-1024h-185z" />
<glyph unicode="g" d="M102 307v512q0 348 349 348h409q348 0 348 -348v-921q0 -348 -348 -349h-450v185h450q164 0 164 164v921q0 164 -164 164h-409q-164 0 -164 -164v-512q0 -164 164 -164h450v-184h-450q-349 0 -349 348z" />
<glyph unicode="h" d="M102 -41v1720h185v-512h573q348 0 348 -348v-860h-184v860q0 164 -164 164h-573v-1024h-185z" />
<glyph unicode="i" horiz-adv-x="450" d="M102 1430v249h246v-249h-246zM135 -41v1208h184v-1208h-184z" />
<glyph unicode="j" horiz-adv-x="458" d="M-61 -266q205 0 204 164v1269h185v-1269q0 -348 -389 -349v185zM111 1430v249h245v-249h-245z" />
<glyph unicode="k" horiz-adv-x="1042" d="M102 -41v1720h185v-968l485 456h275l-685 -604l685 -604h-275l-485 455v-455h-185z" />
<glyph unicode="l" horiz-adv-x="389" d="M102 -41v1720h185v-1720h-185z" />
<glyph unicode="m" horiz-adv-x="1617" d="M102 -41v1208h1065q348 0 349 -348v-860h-185v860q0 164 -164 164h-266v-1024h-184v1024h-430v-1024h-185z" />
<glyph unicode="n" d="M102 -41v1208h758q348 0 348 -348v-860h-184v860q0 164 -164 164h-573v-1024h-185z" />
<glyph unicode="o" d="M102 307v512q0 348 349 348h409q348 0 348 -348v-516q0 -344 -348 -344h-409q-349 0 -349 348zM287 307q0 -164 164 -164h409q164 0 164 160v516q0 164 -164 164h-409q-164 0 -164 -164v-512z" />
<glyph unicode="p" d="M102 -348v1167q0 348 349 348h409q348 0 348 -348v-512q0 -348 -348 -348h-450v184h450q164 0 164 164v512q0 164 -164 164h-409q-164 0 -164 -164v-1167h-185z" />
<glyph unicode="q" d="M102 307v512q0 348 349 348h409q348 0 348 -348v-1270h-184v1270q0 164 -164 164h-409q-164 0 -164 -164v-512q0 -164 164 -164h450v-184h-450q-349 0 -349 348z" />
<glyph unicode="r" horiz-adv-x="655" d="M102 -41v860q0 348 349 348h143v-184h-143q-164 0 -164 -164v-860h-185z" />
<glyph unicode="s" horiz-adv-x="1167" d="M82 819q0 348 348 348h553v-184h-553q-164 0 -164 -164t164 -164h307q348 0 348 -348t-348 -348h-571v184h571q164 0 164 164t-164 164h-307q-348 0 -348 348z" />
<glyph unicode="t" horiz-adv-x="573" d="M41 983v184h102v512h170v-512h219v-184h-219v-1024h-170v1024h-102z" />
<glyph unicode="u" d="M102 307v860h185v-860q0 -164 164 -164h409q164 0 164 160v864h184v-864q0 -344 -348 -344h-409q-349 0 -349 348z" />
<glyph unicode="v" horiz-adv-x="1253" d="M10 1167h199l418 -964l415 964h201l-534 -1208h-166z" />
<glyph unicode="w" horiz-adv-x="1884" d="M12 1167h195l330 -921l323 921h164l330 -921l323 921h195l-432 -1208h-166l-332 918l-319 -918h-166z" />
<glyph unicode="x" horiz-adv-x="1372" d="M55 -41l508 604l-508 604h238l393 -485l393 485h238l-510 -604l510 -604h-238l-393 485l-393 -485h-238z" />
<glyph unicode="y" d="M102 307v860h185v-860q0 -164 164 -164h573v1024h184v-1269q0 -348 -348 -349h-450v185h450q164 0 164 164v61h-573q-349 0 -349 348z" />
<glyph unicode="z" d="M102 -41v160l842 864h-842v184h1106v-159l-846 -865h846v-184h-1106z" />
<glyph unicode="{" horiz-adv-x="559" d="M102 719v196q102 4 103 140v583q0 246 223 246h64v-184q-102 0 -103 -62v-583q0 -152 -72 -238q72 -90 72 -237v-580q0 -61 103 -61v-185h-64q-223 0 -223 246v580q-1 135 -103 139z" />
<glyph unicode="|" horiz-adv-x="389" d="M102 -246v2130h185v-2130h-185z" />
<glyph unicode="}" horiz-adv-x="559" d="M102 -61q102 0 103 61v584q0 150 69 237q-70 88 -69 238v579q0 61 -103 62v184h64q223 0 223 -246v-579q0 -135 103 -139v-197q-102 -4 -103 -139v-584q0 -246 -223 -246h-64v185z" />
<glyph unicode="~" horiz-adv-x="2895" d="M127 0v600h2v96h137v58h-37v180h37v63h-37v76h899v-94q-14 27 -49 27q-94 0 -94 -158q0 -156 98 -156q31 0 64 39v-35h49v377h766v-53h70v53h737v-1073h-2642zM129 754v180h39v-180h-39zM129 997v76h39v-76h-39zM186 160h123v86h-45v301h-78v-387zM289 823 q0 -131 94 -131q29 0 51 17q0 -47 -57 -47h-31v-62h43q113 12 113 145v252h-68v-186q0 -53 -41 -53q-39 0 -39 53v186h-65v-174zM340 160h76v73h26v-73h82v141l-53 246h-84l-47 -246v-141zM416 291v39l12 102h4l10 -102v-39h-26zM524 600h68v115q14 -25 49 -25 q94 0 94 155.5t-98 155.5q-29 0 -64 -40v36h-49v-397zM555 160h78v170h22v-170h84v155l-30 43v7l30 41v100l-22 41h-162v-387zM586 793v102q12 31 43 31q43 0 43 -78q0 -88 -45 -88q-29 0 -41 33zM633 393v84h22v-84h-22zM750 844q0 -156 110 -156q113 0 113 156 q0 160 -113 160q-110 0 -110 -160zM770 160h78v73h24v-73h78v141l-49 246h-84l-47 -246v-141zM817 844q0 84 43 84q45 0 45 -84q0 -82 -45 -82q-43 0 -43 82zM848 291v39l10 102h6l8 -102v-39h-24zM983 160h162l22 43v127l-16 28v7l16 28v113l-22 41h-162v-387zM1049 846 q0 88 45 88q27 0 39 -33v-104q-12 -29 -41 -29q-43 0 -43 78zM1063 233v97h22v-97h-22zM1063 393v84h22v-84h-22zM1200 160h80v387h-80v-387zM1214 774q2 -86 93 -86q45 0 70.5 26.5t25.5 82.5h-31q-6 -39 -51 -39q-41 0 -41 28q0 37 41 37h20v37h-20q-41 0 -41 35 q0 33 41 33q35 0 51 -41h31v110h-31v-47q-23 53 -67 54q-88 0 -88 -89q0 -55 45 -73q-48 -19 -48 -68zM1311 160h131v86h-53v80h53v67h-53v72h53v82h-131v-387zM1425 696h91v58h-29v133q0 41 29 41q12 0 24 -13l23 68q-16 14 -35 16q-43 0 -64 -49v47h-39v-301zM1530 160h80 v159h49v68h-49v78h49v82h-129v-387zM1544 696h144v58h-39v125q0 47 39 47q31 0 30 -47v-183h105v58h-39v125q0 45 39 45q31 0 30 -45v-183h68v193q0 111 -96 110q-49 0 -64 -49q-18 49 -57 49q-35 0 -55 -49v47h-66v-243h-39v-58zM1692 203l20 -43h137l25 43v303l-23 41 h-139l-20 -41v-303zM1769 233v244h23v-244h-23zM1905 160h65v250h6l19 -250h119v387h-66v-250h-6l-23 250h-114v-387zM1931 934h31v-238h70v301h-101v-63zM2048 844q0 -154 104 -154q74 0 93 119h-33q-6 -47 -51 -47q-47 0 -47 82q0 84 47 84t51 -56h33v121h-33v-43 q-25 53 -62 54q-102 0 -102 -160zM2136 465h43v-305h80v305h43v82h-166v-82zM2324 203l23 -43h133l23 43v147l-27 43l-72 17v67h21v-49h78v78l-21 41h-135l-23 -41v-135l25 -41l76 -19v-78h-21v58h-80v-88z" />
<glyph unicode="&#xa1;" horiz-adv-x="450" d="M102 1430v249h246v-249h-246zM133 -41v1311h184v-1311h-184z" />
<glyph unicode="&#xa2;" horiz-adv-x="1003" d="M102 512v307q0 348 349 348h8v205h184v-205h258v-184h-258v-635h258v-184h-258v-205h-184v205h-8q-349 0 -349 348zM287 512q0 -164 164 -164h8v635h-8q-164 0 -164 -164v-307z" />
<glyph unicode="&#xa3;" horiz-adv-x="1003" d="M0 778v185h102v368q0 348 349 348h450v-184h-450q-164 0 -164 -164v-368h205v-185h-205v-635h614v-184h-799v819h-102z" />
<glyph unicode="&#xa4;" horiz-adv-x="1208" d="M102 573v185h103v123h-103v184h103v266q0 348 348 348h553v-184h-553q-164 0 -164 -164v-266h410v-184h-410v-123h410v-185h-410v-266q0 -164 164 -164h553v-184h-553q-348 0 -348 348v266h-103z" />
<glyph unicode="&#xa5;" horiz-adv-x="1669" d="M41 1679h231l543 -729l541 729h231l-680 -895v-825h-184v825zM475 266v185h594v-185h-594zM475 676v184h594v-184h-594z" />
<glyph unicode="&#xa6;" horiz-adv-x="389" d="M102 -246v1004h185v-1004h-185zM102 1085v799h185v-799h-185z" />
<glyph unicode="&#xa7;" horiz-adv-x="1208" d="M102 819q0 166 86 256q-86 86 -86 256q0 348 349 348h389v-184h-389q-164 0 -164 -164t164 -164h307q348 0 348 -348q0 -164 -88 -256q88 -92 88 -256q0 -348 -348 -348h-389v184h389q164 0 164 164t-164 164h-307q-349 0 -349 348zM287 819q0 -154 145 -164h326 q164 0 164 164t-164 164h-307q-164 0 -164 -164z" />
<glyph unicode="&#xa8;" horiz-adv-x="1003" d="M164 1782v286h287v-286h-287zM553 1782v286h287v-286h-287z" />
<glyph unicode="&#xa9;" horiz-adv-x="1822" d="M102 307v1024q0 348 349 348h921q348 0 348 -348v-1028q0 -344 -348 -344h-921q-349 0 -349 348zM287 307q0 -164 164 -164h921q164 0 164 160v1028q0 164 -164 164h-921q-164 0 -164 -164v-1024zM410 614v410q0 348 348 348h553v-184h-553q-164 0 -164 -164v-410 q0 -164 164 -163h553v-185h-553q-348 0 -348 348z" />
<glyph unicode="&#xaa;" horiz-adv-x="798" d="M100 1243v2q0 207 207 207h199v18q0 18 -19 19h-342v190h342q207 0 207 -209v-227q0 -209 -207 -209h-180q-207 0 -207 209zM289 1243q0 -18 18 -18h180q18 0 19 18v19h-199q-18 0 -18 -17v-2z" />
<glyph unicode="&#xab;" horiz-adv-x="1105" d="M102 481v168l492 367v-232l-297 -219l297 -225v-229zM512 481v168l492 367v-232l-297 -219l297 -225v-229z" />
<glyph unicode="&#xad;" horiz-adv-x="798" d="M102 471v184h594v-184h-594z" />
<glyph unicode="&#xae;" horiz-adv-x="1333" d="M102 817v512q0 348 349 348h409q348 0 348 -348v-516q0 -344 -348 -344h-409q-349 0 -349 348zM266 797q0 -164 164 -164h430q184 0 184 160v557q0 164 -184 163h-430q-164 0 -164 -163v-553zM371 717v751h387q207 0 207 -215v-53q0 -190 -166 -213l223 -270h-258 l-205 250v-250h-188zM559 1178h199q18 0 18 22v53q0 20 -18 21h-199v-96z" />
<glyph unicode="&#xaf;" horiz-adv-x="798" d="M102 1864v184h594v-184h-594z" />
<glyph unicode="&#x2c9;" horiz-adv-x="798" d="M102 1864v184h594v-184h-594z" />
<glyph unicode="&#xb0;" horiz-adv-x="901" d="M102 1331q0 348 348.5 348t348.5 -348t-348.5 -348t-348.5 348zM287 1331q0 -164 163.5 -164t163.5 160q0 168 -163.5 168t-163.5 -164z" />
<glyph unicode="&#xb1;" horiz-adv-x="798" d="M143 -43v184h594v-184h-594zM143 471v184h205v205h184v-205h205v-184h-205v-205h-184v205h-205z" />
<glyph unicode="&#xb2;" horiz-adv-x="747" d="M96 778v357q0 215 205 215h133q16 0 17 20v94q0 23 -17 23h-295v192h295q205 0 205 -215v-94q0 -215 -205 -215h-133q-18 0 -18 -20v-164h356v-193h-543z" />
<glyph unicode="&#xb3;" horiz-adv-x="747" d="M102 778v193h338q16 0 17 22v142q0 20 -17 20h-338v195h342q12 0 13 20v94q0 23 -17 23h-338v192h338q205 0 205 -215v-94q0 -37 -7 -65.5t-22 -53.5q29 -51 29 -116v-142q0 -215 -205 -215h-338z" />
<glyph unicode="&#xb4;" horiz-adv-x="696" d="M102 1755v207l492 244v-205z" />
<glyph unicode="&#xb5;" d="M102 -348v1515h185v-860q0 -164 164 -164h409q160 0 164 152v872h184v-1167q0 -164 205 -164v-184q-385 0 -389 340q-35 -16 -76 -24.5t-88 -8.5h-409q-94 0 -164 35v-342h-185z" />
<glyph unicode="&#x3bc;" d="M102 -348v1515h185v-860q0 -164 164 -164h409q160 0 164 152v872h184v-1167q0 -164 205 -164v-184q-385 0 -389 340q-35 -16 -76 -24.5t-88 -8.5h-409q-94 0 -164 35v-342h-185z" />
<glyph unicode="&#xb6;" horiz-adv-x="1024" d="M51 1290q0 389 348 389h521v-1720h-185v1331h-153v-1331h-185v1536q-162 -2 -161 -205h-185z" />
<glyph unicode="&#xb8;" horiz-adv-x="546" d="M102 -41h144q199 0 198.5 -194.5t-202.5 -194.5h-140v164h140q39 0 39 30.5t-39 30.5h-140v164z" />
<glyph unicode="&#xb9;" horiz-adv-x="434" d="M102 1487v192q236 0 236 -215v-686h-164v686q0 23 -72 23z" />
<glyph unicode="&#xba;" d="M102 307v512q0 348 349 348h409q348 0 348 -348v-516q0 -344 -348 -344h-409q-349 0 -349 348zM287 307q0 -164 164 -164h409q164 0 164 160v516q0 164 -164 164h-409q-164 0 -164 -164v-512z" />
<glyph unicode="&#xbb;" horiz-adv-x="1105" d="M102 111v231l295 219l-295 225v230l492 -371v-168zM512 111v231l295 219l-295 225v230l492 -371v-168z" />
<glyph unicode="&#xbc;" horiz-adv-x="1611" d="M111 1487v192q291 0 290 -215v-686h-194v686q0 23 -96 23zM205 -41l956 1720h211l-958 -1720h-209zM846 100v142l254 618h370v-565h48v-195h-48v-141h-194v141h-430zM1079 295h197v483z" />
<glyph unicode="&#xbd;" horiz-adv-x="1654" d="M102 1487v192q293 0 293 -215v-686h-196v686q-1 23 -97 23zM213 -41l956 1720h211l-958 -1720h-209zM950 -41v356q0 215 219 215h146q23 0 22 21v94q0 23 -22 23h-318v192h318q219 0 219 -215v-94q0 -215 -219 -215h-146q-23 0 -22 -21v-163h387v-193h-584z" />
<glyph unicode="&#xbe;" horiz-adv-x="1728" d="M102 778v193h365q23 0 22 22v142q0 16 -22 20h-365v195h369q18 0 18 20v94q0 23 -22 23h-365v192h365q219 0 219 -215v-94q0 -74 -29 -119q29 -45 29 -116v-142q0 -215 -219 -215h-365zM336 -41l956 1720h211l-958 -1720h-209zM956 100v136l258 624h375v-565h49v-195h-49 v-141h-196v141h-437zM1188 295h205v483z" />
<glyph unicode="&#xbf;" horiz-adv-x="1208" d="M102 307v205q0 348 349 348h102q164 0 164 164v348h184v-348q0 -348 -348 -348h-102q-164 0 -164 -164v-205q0 -164 164 -164h655v-184h-655q-349 0 -349 348zM690 1430v249h246v-249h-246z" />
<glyph unicode="&#xc0;" horiz-adv-x="1558" d="M61 -41l684 1720h166l688 -1720h-200l-164 410h-698l73 184h551l-334 858l-567 -1452h-199zM526 2001v205l492 -246v-205z" />
<glyph unicode="&#xc1;" horiz-adv-x="1558" d="M61 -41l684 1720h166l688 -1720h-200l-164 410h-698l73 184h551l-334 858l-567 -1452h-199zM623 1755v207l491 244v-205z" />
<glyph unicode="&#xc2;" horiz-adv-x="1558" d="M61 -41l684 1720h166l688 -1720h-200l-164 410h-698l73 184h551l-334 858l-567 -1452h-199zM539 1782l194 389h168l191 -389h-205l-72 143l-72 -143h-204z" />
<glyph unicode="&#xc3;" horiz-adv-x="1558" d="M61 -41l684 1720h166l688 -1720h-200l-164 410h-698l73 184h551l-334 858l-567 -1452h-199zM387 1888l86 84q41 29 78 40t74 11q47 0 101 -12t101 -29h-2q41 -10 84 -23t84 -13q25 0 54.5 18t68.5 66l131 -138l-86 -84q-41 -29 -77.5 -40t-73.5 -11q-49 0 -102.5 12.5 t-100.5 28.5h2q-41 10 -85 23.5t-83 13.5q-25 0 -54.5 -18.5t-68.5 -65.5z" />
<glyph unicode="&#xc4;" horiz-adv-x="1558" d="M61 -41l684 1720h166l688 -1720h-200l-164 410h-698l73 184h551l-334 858l-567 -1452h-199zM481 1782v286h287v-286h-287zM870 1782v286h287v-286h-287z" />
<glyph unicode="&#xc5;" horiz-adv-x="1558" d="M61 -41l684 1720h166l688 -1720h-200l-164 410h-698l73 184h551l-334 858l-567 -1452h-199zM625 1919q0 195 194 195q197 0 197 -195q0 -197 -197 -197q-194 0 -194 197zM770 1919q0 -55 49 -55q55 0 55 51q0 53 -55 53q-49 0 -49 -49z" />
<glyph unicode="&#xc6;" horiz-adv-x="1853" d="M6 -41l981 1720h762v-184h-596v-737h596v-185h-596v-430h596v-184h-780v614h-398l-352 -614h-213zM676 758h293v506z" />
<glyph unicode="&#xc7;" horiz-adv-x="1308" d="M143 307v1024q0 348 349 348h757v-184h-757q-164 0 -164 -164v-1024q0 -164 164 -164h757v-184h-757q-349 0 -349 348zM647 -41h144q199 0 198.5 -194.5t-203.5 -194.5h-139v164h139q39 0 39 30.5t-39 30.5h-139v164z" />
<glyph unicode="&#xc8;" horiz-adv-x="1208" d="M143 -41v1720h1004v-184h-819v-532h819v-185h-819v-635h819v-184h-1004zM381 2001v205l491 -246v-205z" />
<glyph unicode="&#xc9;" horiz-adv-x="1208" d="M143 -41v1720h1004v-184h-819v-532h819v-185h-819v-635h819v-184h-1004zM440 1755v207l492 244v-205z" />
<glyph unicode="&#xca;" horiz-adv-x="1208" d="M143 -41v1720h1004v-184h-819v-532h819v-185h-819v-635h819v-184h-1004zM395 1782l195 389h168l190 -389h-205l-71 143l-72 -143h-205z" />
<glyph unicode="&#xcb;" horiz-adv-x="1208" d="M143 -41v1720h1004v-184h-819v-532h819v-185h-819v-635h819v-184h-1004zM299 1782v286h287v-286h-287zM688 1782v286h287v-286h-287z" />
<glyph unicode="&#xcc;" horiz-adv-x="389" d="M-59 2001v205l491 -246v-205zM143 -41v1720h185v-1720h-185z" />
<glyph unicode="&#xcd;" horiz-adv-x="389" d="M47 1755v207l492 244v-205zM143 -41v1720h185v-1720h-185z" />
<glyph unicode="&#xce;" horiz-adv-x="389" d="M-37 1782l195 389h168l190 -389h-205l-71 143l-72 -143h-205zM143 -41v1720h185v-1720h-185z" />
<glyph unicode="&#xcf;" horiz-adv-x="389" d="M-90 1782v286h287v-286h-287zM143 -41v1720h185v-1720h-185zM299 1782v286h287v-286h-287z" />
<glyph unicode="&#xd0;" horiz-adv-x="1617" d="M43 471v184h594v-184h-594zM246 -41v1720h962q348 0 348 -348v-1028q0 -344 -348 -344h-655v184h655q164 0 164 160v1028q0 164 -164 164h-778v-1536h-184z" />
<glyph unicode="&#xd1;" horiz-adv-x="1515" d="M143 -41v1720h164l963 -1396v1396h184v-1720h-164l-962 1384v-1384h-185zM371 1888l86 84q41 29 77.5 40t73.5 11q47 0 101.5 -12t101.5 -29h-2q41 -10 84 -23t84 -13q25 0 54.5 18t68.5 66l131 -138l-86 -84q-41 -29 -78 -40t-74 -11q-49 0 -102 12.5t-100 28.5h2 q-41 10 -85 23.5t-83 13.5q-25 0 -54.5 -18.5t-68.5 -65.5z" />
<glyph unicode="&#xd2;" horiz-adv-x="1515" d="M143 307v1024q0 348 349 348h614q348 0 348 -348v-1028q0 -344 -348 -344h-614q-349 0 -349 348zM328 307q0 -164 164 -164h614q164 0 164 160v1028q0 164 -164 164h-614q-164 0 -164 -164v-1024zM502 2001v205l491 -246v-205z" />
<glyph unicode="&#xd3;" horiz-adv-x="1515" d="M143 307v1024q0 348 349 348h614q348 0 348 -348v-1028q0 -344 -348 -344h-614q-349 0 -349 348zM328 307q0 -164 164 -164h614q164 0 164 160v1028q0 164 -164 164h-614q-164 0 -164 -164v-1024zM547 1755v207l491 244v-205z" />
<glyph unicode="&#xd4;" horiz-adv-x="1515" d="M143 307v1024q0 348 349 348h614q348 0 348 -348v-1028q0 -344 -348 -344h-614q-349 0 -349 348zM328 307q0 -164 164 -164h614q164 0 164 160v1028q0 164 -164 164h-614q-164 0 -164 -164v-1024zM516 1782l195 389h168l190 -389h-205l-71 143l-72 -143h-205z" />
<glyph unicode="&#xd5;" horiz-adv-x="1515" d="M143 307v1024q0 348 349 348h614q348 0 348 -348v-1028q0 -344 -348 -344h-614q-349 0 -349 348zM328 307q0 -164 164 -164h614q164 0 164 160v1028q0 164 -164 164h-614q-164 0 -164 -164v-1024zM369 1888l86 84q41 29 77.5 40t73.5 11q47 0 101.5 -12t101.5 -29h-2 q41 -10 84 -23t84 -13q25 0 54.5 18t68.5 66l131 -138l-86 -84q-41 -29 -78 -40t-74 -11q-49 0 -102 12.5t-101 28.5h3q-41 10 -85 23.5t-83 13.5q-25 0 -54.5 -18.5t-68.5 -65.5z" />
<glyph unicode="&#xd6;" horiz-adv-x="1515" d="M143 307v1024q0 348 349 348h614q348 0 348 -348v-1028q0 -344 -348 -344h-614q-349 0 -349 348zM328 307q0 -164 164 -164h614q164 0 164 160v1028q0 164 -164 164h-614q-164 0 -164 -164v-1024zM461 1782v286h287v-286h-287zM850 1782v286h287v-286h-287z" />
<glyph unicode="&#xd7;" horiz-adv-x="1019" d="M39 1106l154 104l309 -356l315 363l139 -119l-333 -381l342 -389l-154 -103l-309 353l-316 -361l-139 119l332 381z" />
<glyph unicode="&#xd8;" horiz-adv-x="1515" d="M143 307v1024q0 348 349 348h614q348 0 348 -348v-1028q0 -344 -348 -344h-614q-349 0 -349 348zM328 307q0 -164 164 -164h614q164 0 164 160v1028q0 164 -164 164h-614q-164 0 -164 -164v-1024zM438 -41l512 1720h195l-514 -1720h-193z" />
<glyph unicode="&#xd9;" horiz-adv-x="1515" d="M143 307v1372h185v-1372q0 -164 164 -164h614q164 0 164 160v1376h184v-1376q0 -344 -348 -344h-614q-349 0 -349 348zM543 2001v205l491 -246v-205z" />
<glyph unicode="&#xda;" horiz-adv-x="1515" d="M143 307v1372h185v-1372q0 -164 164 -164h614q164 0 164 160v1376h184v-1376q0 -344 -348 -344h-614q-349 0 -349 348zM551 1755v207l491 244v-205z" />
<glyph unicode="&#xdb;" horiz-adv-x="1515" d="M143 307v1372h185v-1372q0 -164 164 -164h614q164 0 164 160v1376h184v-1376q0 -344 -348 -344h-614q-349 0 -349 348zM524 1782l195 389h168l190 -389h-205l-71 143l-72 -143h-205z" />
<glyph unicode="&#xdc;" horiz-adv-x="1515" d="M143 307v1372h185v-1372q0 -164 164 -164h614q164 0 164 160v1376h184v-1376q0 -344 -348 -344h-614q-349 0 -349 348zM451 1782v286h286v-286h-286zM840 1782v286h286v-286h-286z" />
<glyph unicode="&#xdd;" horiz-adv-x="1669" d="M41 1679h231l543 -729l541 729h231l-680 -895v-825h-184v825zM649 1755v207l492 244v-205z" />
<glyph unicode="&#xde;" horiz-adv-x="1103" d="M102 -41v1720h185v-307h368q348 0 349 -348v-512q0 -348 -349 -348h-368v-205h-185zM287 348h368q164 0 164 164v512q0 164 -164 164h-368v-840z" />
<glyph unicode="&#xdf;" horiz-adv-x="1619" d="M102 -41v1372q0 348 349 348h716q348 0 349 -348v-205q0 -164 -89 -256q88 -92 89 -256v-307q0 -348 -349 -348h-757v184h757q164 0 164 164v307q0 78 -39 121t-116 43h-766v185h770q152 10 151 163v205q0 164 -164 164h-716q-164 0 -164 -164v-1372h-185z" />
<glyph unicode="&#xe0;" d="M123 307v4q0 344 348 344h451v-184h-451q-164 0 -164 -160v-4q0 -164 164 -164h410q164 0 163 164v512q0 164 -163 164h-656v184h656q348 0 348 -348v-512q0 -348 -348 -348h-410q-348 0 -348 348zM428 1493v205l492 -246v-205z" />
<glyph unicode="&#xe1;" d="M123 307v4q0 344 348 344h451v-184h-451q-164 0 -164 -160v-4q0 -164 164 -164h410q164 0 163 164v512q0 164 -163 164h-656v184h656q348 0 348 -348v-512q0 -348 -348 -348h-410q-348 0 -348 348zM444 1247v207l492 244v-205z" />
<glyph unicode="&#xe2;" d="M123 307v4q0 344 348 344h451v-184h-451q-164 0 -164 -160v-4q0 -164 164 -164h410q164 0 163 164v512q0 164 -163 164h-656v184h656q348 0 348 -348v-512q0 -348 -348 -348h-410q-348 0 -348 348zM414 1274l194 389h168l191 -389h-205l-72 143l-72 -143h-204z" />
<glyph unicode="&#xe3;" d="M123 307v4q0 344 348 344h451v-184h-451q-164 0 -164 -160v-4q0 -164 164 -164h410q164 0 163 164v512q0 164 -163 164h-656v184h656q348 0 348 -348v-512q0 -348 -348 -348h-410q-348 0 -348 348zM266 1380l86 84q41 29 78 40.5t74 11.5q47 0 101 -12.5t102 -28.5h-2 q41 -10 83.5 -23.5t83.5 -13.5q25 0 54.5 18.5t68.5 65.5l131 -138l-86 -84q-41 -29 -77.5 -40t-73.5 -11q-49 0 -102.5 12.5t-100.5 28.5h2q-41 10 -85 23.5t-83 13.5q-25 0 -54.5 -18.5t-68.5 -65.5z" />
<glyph unicode="&#xe4;" d="M123 307v4q0 344 348 344h451v-184h-451q-164 0 -164 -160v-4q0 -164 164 -164h410q164 0 163 164v512q0 164 -163 164h-656v184h656q348 0 348 -348v-512q0 -348 -348 -348h-410q-348 0 -348 348zM352 1274v287h287v-287h-287zM741 1274v287h287v-287h-287z" />
<glyph unicode="&#xe5;" d="M123 307v4q0 344 348 344h451v-184h-451q-164 0 -164 -160v-4q0 -164 164 -164h410q164 0 163 164v512q0 164 -163 164h-656v184h656q348 0 348 -348v-512q0 -348 -348 -348h-410q-348 0 -348 348zM498 1411q0 195 194 195q197 0 197 -195q0 -197 -197 -197 q-194 0 -194 197zM643 1411q0 -55 49 -55q55 0 56 51q0 53 -56 53q-49 0 -49 -49z" />
<glyph unicode="&#xe6;" horiz-adv-x="1820" d="M100 307v4q0 344 349 344h245v-184h-245q-164 0 -164 -160v-4q0 -164 164 -164h204q164 0 164 164v520q0 78 -43 117t-121 39h-450v184h450q166 0 256 -98q88 98 256 98h205q348 0 348 -348v-4q0 -344 -348 -344h-246v184h246q164 0 164 160v4q0 164 -164 164h-205 q-76 0 -120 -41t-44 -125v-510q0 -84 43 -124t121 -40h451v-184h-451q-166 0 -256 96q-90 -96 -256 -96h-204q-349 0 -349 348z" />
<glyph unicode="&#xe7;" horiz-adv-x="1105" d="M143 307v512q0 348 349 348h552v-184h-552q-164 0 -164 -164v-512q0 -164 164 -164h552v-184h-552q-349 0 -349 348zM549 -41h143q199 0 199 -194.5t-203 -194.5h-139v164h139q39 0 39 30.5t-39 30.5h-139v164z" />
<glyph unicode="&#xe8;" d="M143 307v512q0 348 349 348h409q348 0 348 -348v-4q0 -344 -348 -344h-450v184h450q164 0 164 160v4q0 164 -164 164h-409q-164 0 -164 -164v-512q0 -164 164 -164h655v-184h-655q-349 0 -349 348zM453 1493v205l491 -246v-205z" />
<glyph unicode="&#xe9;" d="M143 307v512q0 348 349 348h409q348 0 348 -348v-4q0 -344 -348 -344h-450v184h450q164 0 164 160v4q0 164 -164 164h-409q-164 0 -164 -164v-512q0 -164 164 -164h655v-184h-655q-349 0 -349 348zM449 1247v207l491 244v-205z" />
<glyph unicode="&#xea;" d="M143 307v512q0 348 349 348h409q348 0 348 -348v-4q0 -344 -348 -344h-450v184h450q164 0 164 160v4q0 164 -164 164h-409q-164 0 -164 -164v-512q0 -164 164 -164h655v-184h-655q-349 0 -349 348zM422 1274l194 389h168l191 -389h-205l-72 143l-71 -143h-205z" />
<glyph unicode="&#xeb;" d="M143 307v512q0 348 349 348h409q348 0 348 -348v-4q0 -344 -348 -344h-450v184h450q164 0 164 160v4q0 164 -164 164h-409q-164 0 -164 -164v-512q0 -164 164 -164h655v-184h-655q-349 0 -349 348zM362 1274v287h287v-287h-287zM752 1274v287h286v-287h-286z" />
<glyph unicode="&#xec;" horiz-adv-x="389" d="M-18 1493v205l491 -246v-205zM143 -41v1208h185v-1208h-185z" />
<glyph unicode="&#xed;" horiz-adv-x="389" d="M20 1247v207l492 244v-205zM143 -41v1208h185v-1208h-185z" />
<glyph unicode="&#xee;" horiz-adv-x="389" d="M-35 1274l195 389h168l190 -389h-205l-71 143l-72 -143h-205zM143 -41v1208h185v-1208h-185z" />
<glyph unicode="&#xef;" horiz-adv-x="389" d="M-94 1274v287h287v-287h-287zM143 -41v1208h185v-1208h-185zM295 1274v287h287v-287h-287z" />
<glyph unicode="&#xf0;" d="M102 303v311q0 348 349 349h450v-185h-450q-164 0 -164 -164v-311q0 -160 164 -160h409q164 0 164 164v778h-512v185h512v61q0 164 -164 164h-655v184h655q348 0 348 -348v-61h103v-185h-103v-778q0 -348 -348 -348h-409q-349 0 -349 344z" />
<glyph unicode="&#xf1;" d="M143 -41v1208h758q348 0 348 -348v-860h-184v860q0 164 -164 164h-573v-1024h-185zM262 1380l86 84q41 29 78 40.5t74 11.5q47 0 101 -12.5t101 -28.5h-2q41 -10 84 -23.5t84 -13.5q25 0 54.5 18.5t68.5 65.5l131 -138l-86 -84q-41 -29 -77.5 -40t-73.5 -11 q-49 0 -102.5 12.5t-100.5 28.5h2q-41 10 -85 23.5t-83 13.5q-25 0 -54.5 -18.5t-68.5 -65.5z" />
<glyph unicode="&#xf2;" d="M143 307v512q0 348 349 348h409q348 0 348 -348v-516q0 -344 -348 -344h-409q-349 0 -349 348zM328 307q0 -164 164 -164h409q164 0 164 160v516q0 164 -164 164h-409q-164 0 -164 -164v-512zM453 1493v205l491 -246v-205z" />
<glyph unicode="&#xf3;" d="M143 307v512q0 348 349 348h409q348 0 348 -348v-516q0 -344 -348 -344h-409q-349 0 -349 348zM328 307q0 -164 164 -164h409q164 0 164 160v516q0 164 -164 164h-409q-164 0 -164 -164v-512zM449 1247v207l491 244v-205z" />
<glyph unicode="&#xf4;" d="M143 307v512q0 348 349 348h409q348 0 348 -348v-516q0 -344 -348 -344h-409q-349 0 -349 348zM328 307q0 -164 164 -164h409q164 0 164 160v516q0 164 -164 164h-409q-164 0 -164 -164v-512zM422 1274l194 389h168l191 -389h-205l-72 143l-71 -143h-205z" />
<glyph unicode="&#xf5;" d="M143 307v512q0 348 349 348h409q348 0 348 -348v-516q0 -344 -348 -344h-409q-349 0 -349 348zM276 1380l86 84q41 29 78 40.5t74 11.5q47 0 101.5 -12.5t101.5 -28.5h-2q41 -10 84 -23.5t84 -13.5q25 0 54.5 18.5t68.5 65.5l131 -138l-86 -84q-41 -29 -78 -40t-74 -11 q-49 0 -102.5 12.5t-100.5 28.5h2q-41 10 -85 23.5t-83 13.5q-25 0 -54.5 -18.5t-67.5 -65.5zM328 307q0 -164 164 -164h409q164 0 164 160v516q0 164 -164 164h-409q-164 0 -164 -164v-512z" />
<glyph unicode="&#xf6;" d="M143 307v512q0 348 349 348h409q348 0 348 -348v-516q0 -344 -348 -344h-409q-349 0 -349 348zM328 307q0 -164 164 -164h409q164 0 164 160v516q0 164 -164 164h-409q-164 0 -164 -164v-512zM354 1274v287h287v-287h-287zM743 1274v287h287v-287h-287z" />
<glyph unicode="&#xf7;" horiz-adv-x="798" d="M143 471v184h594v-184h-594zM315 184v250h246v-250h-246zM315 696v250h246v-250h-246z" />
<glyph unicode="&#xf8;" d="M102 307v512q0 348 349 348h409q348 0 348 -348v-516q0 -344 -348 -344h-409q-349 0 -349 348zM287 307q0 -162 155 -164l258 840h-249q-164 0 -164 -164v-512zM637 143h223q164 0 164 160v516q0 143 -133 162z" />
<glyph unicode="&#xf9;" d="M143 307v860h185v-860q0 -164 164 -164h409q164 0 164 160v864h184v-864q0 -344 -348 -344h-409q-349 0 -349 348zM449 1493v205l491 -246v-205z" />
<glyph unicode="&#xfa;" d="M143 307v860h185v-860q0 -164 164 -164h409q164 0 164 160v864h184v-864q0 -344 -348 -344h-409q-349 0 -349 348zM453 1247v207l491 244v-205z" />
<glyph unicode="&#xfb;" d="M143 307v860h185v-860q0 -164 164 -164h409q164 0 164 160v864h184v-864q0 -344 -348 -344h-409q-349 0 -349 348zM414 1274l194 389h168l191 -389h-205l-72 143l-72 -143h-204z" />
<glyph unicode="&#xfc;" d="M143 307v860h185v-860q0 -164 164 -164h409q164 0 164 160v864h184v-864q0 -344 -348 -344h-409q-349 0 -349 348zM350 1274v287h287v-287h-287zM739 1274v287h287v-287h-287z" />
<glyph unicode="&#xfd;" d="M143 307v860h185v-860q0 -164 164 -164h573v1024h184v-1269q0 -348 -348 -349h-450v185h450q164 0 164 164v61h-573q-349 0 -349 348zM449 1247v207l491 244v-205z" />
<glyph unicode="&#xfe;" horiz-adv-x="1103" d="M143 -41v1720h185v-307h368q348 0 348 -348v-512q0 -348 -348 -348h-368v-205h-185zM328 348h368q164 0 164 164v512q0 164 -164 164h-368v-840z" />
<glyph unicode="&#xff;" d="M143 307v860h185v-860q0 -164 164 -164h573v1024h184v-1269q0 -348 -348 -349h-450v185h450q164 0 164 164v61h-573q-349 0 -349 348zM352 1274v287h287v-287h-287zM741 1274v287h287v-287h-287z" />
<glyph unicode="&#x152;" horiz-adv-x="1642" d="M104 307v1024q0 348 349 348h204q47 0 87 -8t75 -24v32h740v-184h-553v-532h553v-185h-555v-635h555v-184h-740v33q-35 -16 -74.5 -24.5t-87.5 -8.5h-204q-349 0 -349 348zM289 307q0 -164 164 -164h204q147 0 162 125v1098q-16 129 -162 129h-204q-164 0 -164 -164 v-1024z" />
<glyph unicode="&#x153;" horiz-adv-x="1933" d="M98 307v512q0 348 348 348h267q166 0 256 -98q88 98 256 98h266q348 0 348 -348v-4q0 -344 -348 -344h-307v184h307q164 0 164 160v4q0 164 -164 164h-266q-76 0 -120 -41t-44 -125v-508q0 -84 45 -125t119 -41h512v-184h-512q-166 0 -256 96q-90 -96 -256 -96h-267 q-348 0 -348 348zM283 307q0 -164 163 -164h267q76 0 120 40t44 124v512q0 164 -164 164h-267q-164 0 -163 -164v-512z" />
<glyph unicode="&#x178;" horiz-adv-x="1669" d="M41 1679h231l543 -729l541 729h231l-680 -895v-825h-184v825zM537 1782v286h286v-286h-286zM926 1782v286h286v-286h-286z" />
<glyph unicode="&#x2c6;" horiz-adv-x="706" d="M76 1782l194 389h168l191 -389h-205l-72 143l-71 -143h-205z" />
<glyph unicode="&#x2dc;" horiz-adv-x="1032" d="M86 1888l86 84q41 29 78 40t74 11q47 0 101 -12t101 -29h-2q41 -10 84 -23t84 -13q25 0 54.5 18t68.5 66l131 -138l-86 -84q-41 -29 -78 -40t-73 -11q-49 0 -102.5 12.5t-100.5 28.5h2q-41 10 -85 23.5t-83 13.5q-25 0 -54.5 -18.5t-68.5 -65.5z" />
<glyph unicode="&#x2013;" horiz-adv-x="1093" d="M102 471v184h889v-184h-889z" />
<glyph unicode="&#x2014;" horiz-adv-x="1822" d="M102 573v185h1618v-185h-1618z" />
<glyph unicode="&#x2018;" horiz-adv-x="374" d="M66 1389v210l61 226h141l-37 -187h80v-249h-245z" />
<glyph unicode="&#x2019;" horiz-adv-x="354" d="M57 1430v249h246v-211l-61 -225h-142l37 187h-80z" />
<glyph unicode="&#x201a;" horiz-adv-x="450" d="M143 -41v250h246v-211l-61 -225h-142l37 186h-80z" />
<glyph unicode="&#x201c;" horiz-adv-x="759" d="M106 1389v210l62 226h141l-37 -187h80v-249h-246zM422 1389v210l61 226h142l-37 -187h80v-249h-246z" />
<glyph unicode="&#x201d;" horiz-adv-x="765" d="M98 1430v249h246v-211l-61 -225h-142l37 187h-80zM412 1430v249h245v-211l-61 -225h-141l37 187h-80z" />
<glyph unicode="&#x201e;" horiz-adv-x="751" d="M143 -41v250h246v-211l-61 -225h-142l37 186h-80zM463 -41v250h246v-211l-62 -225h-141l37 186h-80z" />
<glyph unicode="&#x2022;" horiz-adv-x="1085" d="M74 446l469 811l469 -811h-938z" />
<glyph unicode="&#x2026;" horiz-adv-x="1351" d="M102 -41v250h246v-250h-246zM553 -41v250h246v-250h-246zM1004 -41v250h245v-250h-245z" />
<glyph unicode="&#x2039;" horiz-adv-x="696" d="M102 481v168l492 367v-232l-297 -219l297 -225v-229z" />
<glyph unicode="&#x203a;" horiz-adv-x="696" d="M102 111v231l295 219l-295 225v230l492 -371v-168z" />
<glyph unicode="&#x20ac;" horiz-adv-x="1208" d="M143 573v185h103v123h-103v184h103v266q0 348 348 348h553v-184h-553q-164 0 -164 -164v-266h410v-184h-410v-123h410v-185h-410v-266q0 -164 164 -164h553v-184h-553q-348 0 -348 348v266h-103z" />
<glyph unicode="&#x2122;" horiz-adv-x="1835" d="M106 1487v192h676v-192h-235v-709h-199v709h-242zM885 778v901h178l233 -569l232 569h180v-901h-199v338l-139 -338h-149l-140 336v-336h-196z" />
<glyph unicode="&#xe000;" horiz-adv-x="1165" d="M0 1165h1165v-1165h-1165v1165z" />
<glyph unicode="&#xfb01;" horiz-adv-x="839" d="M111 -41v1372q0 344 383 348h262v-186h-262v2q-199 -2 -199 -164v-164h432v-1208h-184v1024h-248v-1024h-184z" />
<glyph unicode="&#xfb02;" horiz-adv-x="798" d="M102 -41v1372q0 348 410 350v-2h184v-1720h-184v1024h-225v-1024h-185zM287 1167h225v330q-225 -2 -225 -166v-164z" />
<glyph unicode="&#xfb03;" horiz-adv-x="1515" d="M102 -41v1372q0 348 390 348v-184q-205 0 -205 -164v-164h205v-184h-205v-1024h-185zM635 -41v1372q0 348 389 348v-184q-205 0 -205 -164v-164h205v-184h-205v-1024h-184zM1167 1430v249h246v-249h-246zM1200 -41v1208h184v-1208h-184z" />
<glyph unicode="&#xfb04;" horiz-adv-x="1454" d="M102 -41v1372q0 348 390 348v-184q-205 0 -205 -164v-164h205v-184h-205v-1024h-185zM635 -41v1372q0 348 389 348v-184q-205 0 -205 -164v-164h205v-184h-205v-1024h-184zM1167 -41v1720h185v-1720h-185z" />
</font>
</defs>
</svg>
